Coordinates
version=1
nRows=13
nColumns=36
inDegrees=yes

Units are S.I. units (second, meters, Newtons, ...)
If the header above contains a line with 'inDegrees', this indicates whether rotational values are in degrees (yes) or radians (no).

endheader
time	pelvis_tilt	pelvis_list	pelvis_rotation	pelvis_tx	pelvis_ty	pelvis_tz	hip_flexion_r	hip_adduction_r	hip_rotation_r	knee_angle_r	knee_angle_r_beta	ankle_angle_r	subtalar_angle_r	mtp_angle_r	hip_flexion_l	hip_adduction_l	hip_rotation_l	knee_angle_l	knee_angle_l_beta	ankle_angle_l	subtalar_angle_l	mtp_angle_l	lumbar_extension	lumbar_bending	lumbar_rotation	arm_flex_r	arm_add_r	arm_rot_r	elbow_flex_r	pro_sup_r	arm_flex_l	arm_add_l	arm_rot_l	elbow_flex_l	pro_sup_l
      1.51000000	     -9.36597308	      6.73677798	     10.77202231	     -0.37746969	      0.86085011	     -0.54997487	     41.05047625	     -9.27525372	     -3.30752947	     44.77529230	      0.78147627	     11.15571255	     -8.14932052	     -7.47426735	     54.32411508	      1.34881061	      3.11041892	     45.74034241	      0.79831958	    -15.14282877	     13.91798367	     -7.47426735	    -15.73196705	      1.16133683	     -9.12568448	     38.80881743	    -60.75370610	     19.46274036	     69.02001948	    104.43041066	     -7.18892075	    -73.19339563	    -45.63800897	     94.53648636	     88.60949395
      1.52000000	    -10.06138639	      5.45619852	      9.45172216	     -0.37437371	      0.83708686	     -0.55020791	     46.54184320	     -7.93208366	     -2.96752990	     52.46254960	      0.91564422	     13.65216078	     -7.40771723	     -7.49044385	     57.27249691	     -0.20863450	      3.35888153	     47.92971420	      0.83653132	    -14.70588487	     14.34891391	     -7.49044385	    -15.29998338	      2.85636063	     -5.68489945	     40.16192030	    -62.35037559	     20.45164802	     67.01580740	    109.70756274	      8.35760096	    -70.47905280	    -31.67241107	     92.36773387	     95.41019541
      1.53000000	    -10.58651756	      4.48778758	      7.99891818	     -0.37127337	      0.81558509	     -0.55178624	     52.09383459	     -6.95116076	     -2.28722630	     60.59750023	      1.05762590	     14.37348064	     -6.52877277	     -7.49150926	     59.79452571	     -1.36840047	      3.49695444	     50.36312295	      0.87900232	    -13.82155826	     13.67889946	     -7.49150926	    -15.78641921	      4.37774303	     -3.92213794	     44.24989893	    -61.94011121	     23.16162576	     64.94759205	    108.88312294	     10.52390820	    -67.63448374	    -30.57620227	     93.15754029	     94.35528974
      1.54000000	    -10.48713352	      3.31749626	      6.83215690	     -0.36742384	      0.79652887	     -0.55393001	     55.93108038	     -6.13380347	     -2.46286763	     67.25867377	      1.17388531	     15.06263994	     -4.95254032	     -7.49452677	     61.75298014	     -2.28280110	      4.17912094	     54.04408336	      0.94324720	    -10.49816931	     11.71578855	     -7.49452677	    -17.11481421	      6.29028851	     -3.94910826	     51.57003496	    -59.55714889	     29.19483938	     61.29949171	    110.32378041	      6.44278060	    -65.23060190	    -35.61017613	     94.53248220	     94.74988015
      1.55000000	    -10.12365146	      1.88304284	      5.75627650	     -0.36290213	      0.77939859	     -0.55505097	     58.16416469	     -5.05551381	     -3.34534156	     71.83810839	      1.25381152	     16.22092664	     -3.73523192	     -7.49507769	     63.46864180	     -3.44138464	      4.97564584	     58.99384241	      1.02963679	     -4.15909225	      9.55239510	     -7.49507769	    -18.65790175	      8.21915145	     -2.68695349	     54.89456116	    -58.14741150	     31.48940843	     58.85264905	    109.63551869	      8.20730146	    -62.86419299	    -34.30823596	     94.89714203	     93.98330200
      1.56000000	     -9.76896456	      0.60155776	      4.58675720	     -0.35814319	      0.76363878	     -0.55478184	     59.56098474	     -3.56335104	     -4.07196980	     75.03989397	      1.30969322	     17.54838927	     -3.82937127	     -7.49538582	     64.98835653	     -4.86908985	      5.23001166	     64.20496959	      1.12058812	      2.98113652	      7.34867094	     -7.49538582	    -20.19093168	      9.63709424	     -1.59598444	     57.48665830	    -56.07772030	     33.30385155	     56.29336763	    109.87324502	      9.63268229	    -61.12007012	    -32.90699593	     94.75650540	     93.98593373
      1.57000000	     -9.60459162	      0.00776913	      3.34356461	     -0.35348639	      0.74874282	     -0.55328316	     60.89564245	     -1.97725551	     -3.94158026	     77.90744832	      1.35974149	     19.23239340	     -4.78374733	     -7.49548389	     66.39342897	     -6.32970137	      4.45013302	     68.70651225	      1.19915486	      7.87923299	      4.45436978	     -7.49548389	    -21.69689480	      9.94716066	     -0.82349234	     58.46287096	    -53.82000599	     33.39459837	     55.17846562	    109.51117395	     10.35012325	    -60.19842235	    -31.91912478	     94.66734199	     93.87826603
      1.58000000	     -9.35007558	     -0.01314567	      2.37415259	     -0.34937789	      0.73502862	     -0.55146666	     62.10005848	     -0.86938332	     -3.42386792	     80.86337448	      1.41133213	     21.14449487	     -5.27404946	     -7.49581680	     67.47331750	     -7.44796159	      3.43852170	     72.36486734	      1.26300520	     11.95594220	      3.04966303	     -7.49581680	    -22.96236787	      9.57890006	     -0.27944068	     59.97198919	    -51.67178760	     35.70969755	     52.80151019	    110.36503003	     13.37881911	    -59.74775724	    -28.21909493	     93.00696783	     94.49278347
      1.59000000	     -9.36941615	      0.33760863	      1.54996733	     -0.34574627	      0.72171721	     -0.54916619	     63.64658446	      0.05408322	     -2.50213754	     83.81482856	      1.46284472	     22.77857565	     -5.87406731	     -7.49681641	     68.70878710	     -8.39604733	      2.34201294	     75.36993694	      1.31545356	     14.53622947	      1.59844506	     -7.49681641	    -23.93673052	      8.56594186	      1.25171506	     57.95866716	    -51.14226191	     33.18545986	     53.33125792	    111.03823580	     19.87051951	    -59.26250266	    -20.87380080	     90.58528082	     96.10590833
      1.60000000	     -9.48370134	      0.70979054	      1.10842455	     -0.34245558	      0.70867119	     -0.54779982	     65.21908991	      0.59724557	     -1.70993746	     86.67095165	      1.51269347	     24.62469457	     -5.96032898	     -7.49722729	     70.05516246	     -8.95091574	      1.74740740	     78.06165090	      1.36243283	     16.73846401	      1.13909739	     -7.49722729	    -24.64308501	      7.74689886	      1.38356978	     58.07459420	    -49.80178409	     34.44984342	     52.97711810	    111.14872246	     23.19989697	    -59.31844351	    -16.59772548	     88.96953986	     96.41138864
      1.61000000	     -9.71401315	      1.10042487	      1.00764005	     -0.33939704	      0.69606975	     -0.54735281	     66.88170282	      0.77160051	     -1.08334181	     89.48099684	      1.56173801	     25.83005576	     -6.49485779	     -7.49728067	     71.56117194	     -9.10418452	      1.50021793	     80.51999428	      1.40533901	     18.26342837	      0.93614035	     -7.49728067	    -25.30016940	      7.05759503	      0.61573241	     58.36439277	    -47.73537009	     34.90154781	     52.76515508	    111.05359573	     24.18372508	    -59.93744708	    -14.81674949	     88.52044744	     96.47113647
      1.62000000	     -9.86343895	      1.26642213	      1.04107937	     -0.33650659	      0.68438949	     -0.54771449	     68.42591200	      0.70520805	     -0.81659552	     92.17146640	      1.60869557	     26.97287997	     -6.04551193	     -7.49788796	     73.08751879	     -9.22929239	      1.60100999	     83.00681842	      1.44874228	     19.70425044	      1.64602626	     -7.49788796	    -25.78171070	      6.68763548	      1.49220681	     57.44681902	    -48.18695298	     35.17383738	     53.75309220	    110.65719256	     30.38632591	    -59.21806029	     -7.69633123	     86.48649589	     97.45080104
      1.63000000	    -10.11076145	      1.11658554	      1.19589677	     -0.33369236	      0.67342503	     -0.54884927	     70.05175452	      0.54760995	     -0.89643421	     94.73390696	      1.65341859	     27.50805182	     -5.65110648	     -7.49798487	     74.75820687	     -9.18819086	      2.15077213	     85.34784401	      1.48960089	     20.91798943	      1.91207020	     -7.49798487	    -26.24493708	      6.93119449	      1.09488211	     58.77181911	    -47.34022198	     37.95666771	     53.66377722	    110.86267349	     32.16541362	    -59.25329358	     -5.46459693	     85.83314659	     97.73115206
